<?xml version="1.0" standalone="no"?>
<!DOCTYPE svg PUBLIC "-//W3C//DTD SVG 20010904//EN"
 "http://www.w3.org/TR/2001/REC-SVG-20010904/DTD/svg10.dtd">
<svg version="1.0" xmlns="http://www.w3.org/2000/svg"
 width="4096.000000pt" height="4096.000000pt" viewBox="0 0 4096.000000 4096.000000"
 preserveAspectRatio="xMidYMid meet">
<metadata>
Created by potrace 1.16, written by Peter Selinger 2001-2019
</metadata>
<g transform="translate(0.000000,4096.000000) scale(0.100000,-0.100000)"
fill="#000000" stroke="none">
<path d="M6855 39149 c-283 -20 -437 -41 -715 -100 -213 -45 -301 -67 -435
-109 -66 -21 -147 -46 -180 -55 -33 -9 -114 -39 -181 -66 -67 -27 -127 -49
-134 -49 -7 0 -69 -27 -137 -60 -69 -33 -130 -60 -135 -60 -15 0 -378 -189
-425 -221 -23 -16 -46 -29 -51 -29 -5 0 -32 -15 -58 -33 -27 -19 -87 -57 -134
-85 -47 -28 -95 -60 -108 -72 -13 -12 -40 -31 -60 -43 -108 -63 -430 -320
-572 -457 -26 -25 -82 -79 -126 -120 -82 -77 -199 -200 -294 -309 -30 -35 -73
-84 -96 -110 -51 -58 -208 -261 -222 -287 -6 -11 -29 -42 -51 -69 -23 -27 -48
-64 -56 -82 -9 -17 -26 -45 -39 -60 -12 -15 -47 -68 -76 -118 -29 -49 -59 -97
-66 -105 -15 -19 -136 -237 -171 -310 -15 -30 -48 -98 -74 -150 -26 -52 -58
-124 -72 -160 -14 -36 -37 -92 -52 -125 -32 -70 -125 -330 -166 -465 -42 -141
-127 -475 -139 -550 -58 -365 -74 -491 -90 -684 -7 -87 -10 -4491 -10 -13560
0 -14485 -3 -13539 49 -13896 36 -249 42 -285 61 -384 48 -249 204 -759 296
-968 25 -57 50 -118 55 -136 6 -17 34 -80 64 -138 30 -59 55 -111 55 -115 0
-5 21 -46 47 -91 25 -46 59 -108 74 -138 16 -30 49 -86 74 -125 24 -38 49 -81
55 -94 6 -13 34 -58 63 -100 28 -42 57 -83 62 -92 6 -9 30 -45 55 -79 25 -35
59 -83 76 -108 18 -25 43 -57 57 -71 14 -15 36 -43 49 -62 49 -72 354 -413
469 -525 140 -135 428 -387 464 -406 11 -6 34 -23 50 -38 33 -30 283 -210 292
-210 3 0 33 -20 67 -43 33 -24 81 -55 106 -69 25 -14 86 -50 136 -81 50 -32
97 -57 104 -57 7 0 21 -6 29 -13 28 -25 438 -227 458 -227 6 0 61 -22 124 -49
63 -27 139 -57 169 -66 30 -10 128 -42 217 -72 89 -30 183 -58 210 -63 26 -5
118 -27 203 -48 206 -52 271 -63 710 -120 114 -15 1298 -16 13645 -19 9538 -3
13563 -1 13665 7 307 22 656 76 895 136 77 20 167 42 200 49 33 7 121 34 195
60 74 25 159 53 188 61 30 8 101 35 159 60 58 25 133 55 166 68 121 47 497
236 612 309 33 21 92 56 130 79 39 22 79 49 90 58 11 10 38 28 60 40 22 12 63
39 90 59 233 172 365 274 365 282 0 4 12 14 26 22 78 41 440 396 637 625 34
39 81 93 103 120 51 58 189 241 228 302 16 25 42 60 58 79 16 18 35 45 41 60
7 14 38 64 70 110 31 47 57 89 57 93 0 5 20 39 43 76 82 125 297 561 337 682
12 36 25 70 29 75 27 36 180 499 210 635 10 47 34 155 54 240 52 228 77 410
107 770 6 73 10 5020 10 13555 0 11805 -2 13461 -15 13610 -8 94 -17 181 -20
195 -3 14 -9 73 -15 132 -10 114 -41 280 -90 488 -17 69 -35 148 -41 175 -6
28 -36 124 -65 214 -30 89 -54 167 -54 172 0 11 -68 183 -99 251 -11 26 -21
53 -21 60 0 12 -92 215 -145 318 -92 180 -137 263 -171 319 -21 35 -52 87 -69
116 -46 79 -105 170 -160 247 -27 39 -58 85 -68 102 -11 17 -31 45 -46 61 -16
17 -47 56 -70 88 -183 252 -533 620 -806 846 -50 41 -115 96 -145 121 -30 25
-71 56 -90 67 -19 12 -45 31 -58 43 -12 12 -50 40 -85 64 -34 24 -92 64 -128
89 -37 26 -70 47 -74 47 -4 0 -36 20 -71 45 -35 25 -81 54 -101 63 -21 10 -58
31 -83 46 -25 16 -97 56 -160 89 -63 33 -140 72 -170 88 -78 41 -312 143 -395
173 -38 13 -117 43 -175 64 -114 43 -406 132 -510 156 -428 97 -604 124 -940
146 -190 12 -27023 11 -27205 -1z m20735 -10197 c394 -10 446 -14 855 -68 481
-63 697 -102 1050 -190 666 -167 1253 -416 1763 -750 935 -613 1555 -1520
1816 -2661 36 -156 90 -466 118 -673 22 -167 23 -203 23 -780 0 -524 -2 -623
-18 -740 -99 -744 -234 -1234 -481 -1735 -169 -342 -386 -663 -619 -919 l-79
-85 102 -113 c541 -600 889 -1392 1039 -2363 56 -363 56 -360 56 -1005 0 -645
0 -643 -56 -1005 -95 -613 -259 -1128 -510 -1594 -208 -389 -427 -680 -745
-991 -294 -288 -558 -484 -934 -697 -575 -324 -1284 -564 -2060 -697 -251 -43
-562 -84 -890 -118 -203 -20 -239 -21 -4680 -28 -2461 -4 -6845 -8 -9741 -9
-5236 -1 -5266 -1 -5344 19 -90 23 -141 51 -211 113 -65 59 -118 138 -146 217
l-23 65 -3 1215 c-3 1341 -5 1295 59 1418 67 128 213 237 358 268 56 12 1336
14 8711 15 4755 0 9025 4 9490 9 l845 8 145 30 c676 144 986 409 1161 992 72
241 94 429 93 785 -1 240 -5 314 -22 427 -75 492 -251 838 -533 1048 -168 125
-381 210 -691 276 l-173 37 -9465 8 c-6176 6 -9492 12 -9543 18 -109 14 -192
56 -277 140 -83 82 -115 136 -140 238 -20 77 -20 106 -18 1298 l3 1220 23 65
c59 170 217 308 387 339 43 8 2564 13 8875 17 4848 3 9126 9 9505 14 l690 8
148 31 c765 161 1105 547 1218 1386 9 66 13 198 13 385 -1 240 -4 308 -22 432
-48 320 -139 579 -273 775 -213 310 -586 502 -1119 574 -50 6 -3255 13 -9515
19 -6559 7 -9461 13 -9509 20 -175 27 -336 165 -398 340 l-23 65 -3 1220 c-2
1192 -2 1221 18 1298 25 102 57 156 140 238 73 72 148 114 238 135 47 11 1792
12 9492 9 5571 -2 9597 -8 9830 -13z"/>
</g>
</svg>
