<?xml version="1.0" standalone="no"?>
<!DOCTYPE svg PUBLIC "-//W3C//DTD SVG 20010904//EN"
 "http://www.w3.org/TR/2001/REC-SVG-20010904/DTD/svg10.dtd">
<svg version="1.0" xmlns="http://www.w3.org/2000/svg"
 width="14194.000000pt" height="4096.000000pt" viewBox="0 0 14194.000000 4096.000000"
 preserveAspectRatio="xMidYMid meet">
<metadata>
Created by potrace 1.16, written by Peter Selinger 2001-2019
</metadata>
<g transform="translate(0.000000,4096.000000) scale(0.100000,-0.100000)"
fill="#000000" stroke="none">
<path d="M118664 28032 c2 -4 -11 -6 -31 -4 -22 3 -33 1 -30 -5 4 -6 -4 -8
-20 -5 -19 4 -24 2 -18 -8 5 -9 4 -11 -4 -6 -15 9 -53 -3 -46 -15 3 -5 -1 -6
-9 -3 -14 5 -76 -21 -76 -32 0 -3 5 -2 12 2 7 4 8 3 4 -5 -4 -6 -12 -9 -17 -5
-21 13 -172 -117 -163 -140 3 -7 -3 -19 -13 -27 -17 -13 -17 -13 -3 6 14 18
14 19 -2 7 -9 -8 -15 -19 -12 -26 2 -6 -3 -20 -12 -31 -8 -11 -12 -14 -8 -6 4
9 3 12 -4 7 -6 -4 -8 -14 -5 -23 4 -11 3 -14 -5 -9 -8 5 -10 1 -5 -10 4 -11 3
-15 -4 -11 -7 5 -9 -1 -5 -15 3 -14 1 -19 -6 -14 -8 5 -10 1 -5 -10 4 -11 3
-15 -4 -11 -7 5 -9 -1 -5 -15 3 -13 1 -19 -5 -15 -6 4 -8 -4 -5 -20 3 -15 1
-23 -4 -20 -6 3 -8 -9 -6 -30 3 -20 1 -33 -4 -30 -5 3 -9 -478 -9 -1118 0
-640 4 -1121 9 -1118 5 3 7 -10 4 -30 -2 -21 0 -33 6 -30 5 3 7 -5 4 -20 -3
-16 -1 -24 5 -20 6 4 8 -2 5 -15 -4 -14 -2 -20 5 -15 7 4 8 0 4 -11 -5 -11 -3
-15 5 -10 7 5 9 0 6 -14 -4 -14 -2 -20 5 -15 7 4 8 0 4 -11 -5 -11 -3 -15 5
-10 8 5 9 2 5 -9 -3 -9 -1 -19 5 -23 7 -5 8 -2 4 7 -4 8 0 5 8 -6 9 -11 14
-25 12 -31 -3 -7 3 -18 12 -26 16 -12 16 -11 2 7 -14 19 -14 19 3 6 10 -8 16
-20 13 -27 -9 -23 142 -153 163 -140 5 4 13 1 17 -5 4 -8 3 -9 -4 -5 -7 4 -12
5 -12 2 0 -11 62 -37 76 -32 8 3 12 2 9 -3 -7 -12 31 -24 46 -15 8 5 9 3 4 -6
-6 -10 -1 -12 18 -8 16 3 24 1 20 -5 -3 -6 8 -8 30 -5 20 2 33 0 31 -4 -3 -5
3809 -7 8470 -6 4662 2 8476 -1 8476 -5 0 -5 27 -6 60 -2 44 5 60 4 60 -5 0
-8 12 -10 40 -5 28 5 40 3 40 -5 0 -9 11 -10 35 -6 24 5 35 3 35 -5 0 -7 9 -9
25 -5 16 4 25 2 25 -5 0 -7 9 -9 25 -5 16 4 25 2 25 -5 0 -7 9 -9 26 -5 18 5
24 3 18 -5 -5 -9 1 -10 20 -5 20 5 26 3 21 -5 -5 -8 -1 -9 15 -4 17 5 21 4 15
-6 -6 -9 -2 -11 13 -7 12 4 22 2 22 -4 0 -5 10 -6 21 -3 16 5 19 4 14 -6 -6
-9 -3 -11 8 -6 10 4 17 2 17 -4 0 -6 7 -8 16 -5 9 4 13 2 8 -5 -4 -8 1 -9 16
-4 13 4 20 3 17 -2 -7 -11 120 -76 133 -68 5 3 12 0 16 -6 4 -8 3 -9 -4 -5 -7
4 -12 5 -12 2 0 -10 57 -35 65 -28 3 4 5 0 3 -8 -2 -9 4 -15 14 -15 10 0 23
-7 30 -15 11 -12 10 -12 -7 0 -11 7 1 -6 27 -29 26 -23 68 -65 94 -94 26 -29
41 -43 33 -32 -13 18 -13 19 3 6 10 -7 15 -18 11 -24 -3 -6 7 -21 23 -35 16
-13 23 -21 15 -17 -10 6 -8 -1 4 -23 10 -17 23 -28 28 -25 6 3 7 1 3 -5 -9
-15 35 -103 47 -95 6 4 8 -1 4 -10 -3 -10 -2 -17 3 -17 5 0 6 -7 3 -17 -5 -11
-3 -14 6 -8 10 6 11 2 6 -15 -5 -15 -4 -20 4 -16 7 5 9 1 5 -8 -3 -9 -2 -16 4
-16 6 0 8 -10 4 -22 -4 -15 -2 -19 7 -13 10 6 11 2 6 -15 -5 -16 -4 -20 4 -15
8 5 10 -1 5 -21 -5 -20 -4 -25 6 -19 9 5 10 2 5 -14 -4 -13 -2 -21 5 -21 6 0
8 -10 4 -26 -5 -20 -4 -25 6 -19 9 6 10 0 5 -25 -5 -24 -4 -31 5 -25 9 6 10
-1 5 -24 -4 -20 -3 -31 5 -31 7 0 9 -12 4 -35 -4 -24 -2 -35 5 -35 9 0 10 -13
5 -45 -4 -32 -3 -45 6 -45 8 0 10 -17 5 -65 -5 -45 -4 -65 4 -65 8 0 11 -45
11 -145 0 -100 -3 -145 -11 -145 -8 0 -9 -20 -4 -65 5 -48 3 -65 -5 -65 -9 0
-10 -13 -6 -45 5 -32 4 -45 -5 -45 -7 0 -9 -11 -5 -35 5 -23 3 -35 -4 -35 -8
0 -9 -11 -5 -31 5 -23 4 -30 -5 -24 -9 6 -10 -1 -5 -25 5 -25 4 -31 -5 -25
-10 6 -11 1 -6 -19 4 -16 2 -26 -4 -26 -7 0 -9 -8 -5 -21 5 -16 4 -19 -5 -14
-10 6 -11 1 -6 -19 5 -20 3 -26 -5 -21 -8 5 -9 1 -4 -15 5 -17 4 -21 -6 -15
-9 6 -11 2 -7 -13 4 -12 2 -22 -4 -22 -6 0 -7 -7 -4 -16 4 -9 2 -13 -5 -8 -8
4 -9 -1 -4 -16 5 -17 4 -21 -6 -15 -9 6 -11 3 -6 -8 4 -10 1 -17 -5 -17 -6 0
-9 -3 -5 -6 3 -4 -1 -13 -9 -21 -8 -9 -13 -22 -10 -30 4 -9 2 -11 -6 -7 -8 5
-9 2 -5 -10 4 -9 3 -15 -2 -12 -4 3 -13 -6 -20 -20 -9 -20 -9 -24 1 -19 7 4 2
-2 -11 -13 -13 -10 -21 -24 -17 -30 3 -6 1 -14 -5 -18 -8 -5 -10 -2 -5 7 4 8
-2 3 -13 -11 -11 -14 -19 -30 -16 -37 2 -6 -4 -17 -13 -25 -16 -12 -16 -11 -2
7 15 20 15 20 -8 1 -12 -11 -21 -25 -18 -32 2 -6 -19 -33 -47 -60 l-52 -49 50
55 50 54 -65 -59 c-80 -72 -91 -83 -65 -65 17 12 18 12 7 0 -7 -8 -20 -15 -30
-15 -10 0 -16 -6 -14 -15 2 -8 0 -12 -3 -8 -8 7 -65 -18 -65 -28 0 -3 5 -2 12
2 7 4 8 3 4 -5 -4 -6 -11 -9 -16 -6 -12 7 -100 -37 -94 -47 3 -4 -3 -5 -12 -1
-12 4 -15 3 -10 -5 5 -8 2 -10 -8 -6 -9 3 -16 1 -16 -5 0 -6 -7 -8 -17 -4 -11
4 -14 3 -9 -5 5 -8 2 -10 -8 -6 -9 3 -16 1 -16 -5 0 -6 -7 -8 -17 -4 -11 5
-14 3 -8 -6 5 -10 2 -11 -14 -6 -11 3 -21 2 -21 -3 0 -6 -10 -8 -22 -4 -15 4
-19 2 -13 -7 6 -10 2 -11 -15 -6 -16 5 -20 4 -15 -4 5 -8 -1 -10 -21 -5 -19 5
-25 4 -20 -5 6 -8 0 -10 -18 -5 -17 4 -26 2 -26 -5 0 -7 -9 -9 -25 -5 -16 4
-25 2 -25 -5 0 -7 -9 -9 -25 -5 -16 4 -25 2 -25 -5 0 -8 -11 -10 -35 -5 -24 4
-35 3 -35 -6 0 -8 -12 -10 -40 -5 -28 5 -40 3 -40 -5 0 -9 -16 -10 -60 -5 -33
4 -60 3 -60 -2 0 -4 -3814 -7 -8476 -5 -4661 1 -8473 -1 -8470 -6 2 -4 -11 -6
-31 -4 -22 3 -33 1 -30 -5 4 -6 -4 -8 -20 -5 -19 4 -24 2 -18 -8 5 -9 4 -11
-4 -6 -15 9 -53 -3 -46 -15 3 -5 -1 -6 -9 -3 -14 5 -76 -21 -76 -32 0 -3 5 -2
12 2 7 4 8 3 4 -5 -4 -6 -12 -9 -17 -5 -21 13 -172 -117 -163 -140 3 -7 -3
-19 -13 -27 -17 -13 -17 -13 -3 6 14 18 14 19 -2 7 -9 -8 -15 -19 -12 -26 2
-6 -3 -20 -12 -31 -8 -11 -12 -14 -8 -6 4 9 3 12 -4 7 -6 -4 -8 -14 -5 -23 4
-11 3 -14 -5 -9 -8 5 -10 1 -5 -10 4 -11 3 -15 -4 -11 -7 5 -9 -1 -5 -15 3
-14 1 -19 -6 -14 -8 5 -10 1 -5 -10 4 -11 3 -15 -4 -11 -7 5 -9 -1 -5 -15 3
-13 1 -19 -5 -15 -6 4 -8 -4 -5 -20 3 -15 1 -23 -4 -20 -6 3 -8 -9 -6 -30 3
-20 1 -33 -4 -30 -5 3 -9 -478 -9 -1118 0 -640 4 -1121 9 -1118 5 3 7 -10 4
-30 -2 -21 0 -33 6 -30 5 3 7 -5 4 -20 -3 -16 -1 -24 5 -20 6 4 8 -2 5 -15 -4
-14 -2 -20 5 -15 7 4 8 0 4 -11 -5 -11 -3 -15 5 -10 7 5 9 0 6 -14 -4 -14 -2
-20 5 -15 7 4 8 0 4 -11 -5 -11 -3 -15 5 -10 8 5 9 2 5 -9 -3 -9 -1 -19 5 -23
7 -5 8 -2 4 7 -4 8 0 5 8 -6 9 -11 14 -25 12 -31 -3 -7 3 -18 12 -26 16 -12
16 -11 2 7 -14 19 -14 19 3 6 10 -8 16 -20 13 -27 -9 -23 142 -153 163 -140 5
4 13 1 17 -5 4 -8 3 -9 -4 -5 -7 4 -12 5 -12 2 0 -11 62 -37 76 -32 8 3 12 2
9 -3 -7 -12 31 -24 46 -15 8 5 9 3 4 -6 -6 -10 -1 -12 18 -8 16 3 24 1 20 -5
-3 -6 8 -8 30 -5 20 2 33 0 31 -4 -3 -5 3804 -7 8460 -6 4770 2 8466 -1 8466
-6 0 -4 29 -5 65 -1 48 5 65 3 65 -5 0 -9 12 -11 40 -6 27 4 40 3 40 -5 0 -8
13 -9 41 -5 30 5 39 3 33 -5 -5 -9 2 -10 25 -6 22 5 30 3 25 -4 -4 -8 4 -9 26
-4 25 5 31 4 25 -5 -6 -10 -1 -11 19 -6 16 4 26 2 26 -4 0 -7 8 -9 20 -5 12 4
20 2 20 -5 0 -7 8 -9 21 -5 16 5 19 4 14 -5 -5 -9 -1 -10 15 -5 17 5 21 4 15
-6 -6 -9 -2 -11 13 -7 12 4 22 2 22 -4 0 -6 7 -7 16 -4 9 4 13 2 8 -5 -4 -8 1
-9 16 -4 17 5 21 4 15 -6 -6 -9 -3 -11 8 -6 10 3 17 2 17 -3 0 -5 7 -6 17 -3
9 4 14 2 10 -3 -3 -6 19 -23 49 -37 31 -15 53 -22 49 -15 -4 7 2 2 13 -11 10
-13 24 -21 30 -17 6 3 14 1 18 -5 5 -8 2 -10 -7 -5 -8 4 -3 -2 11 -13 14 -11
30 -19 37 -16 6 2 17 -4 25 -13 12 -16 11 -16 -7 -3 -19 14 -19 13 1 -8 11
-12 28 -23 37 -25 21 -3 88 -66 82 -77 -3 -4 4 -18 16 -30 11 -13 17 -18 13
-10 -5 9 -3 12 5 7 6 -4 9 -11 6 -15 -2 -5 3 -17 11 -27 9 -10 12 -13 8 -5 -4
9 -3 12 4 7 6 -4 9 -13 6 -20 -3 -8 0 -17 7 -22 8 -5 10 -3 4 6 -5 9 -4 11 4
6 6 -4 8 -12 5 -18 -4 -6 4 -20 17 -30 13 -11 18 -17 11 -13 -7 4 0 -18 15
-49 14 -30 31 -52 37 -49 5 4 7 -1 3 -10 -8 -22 2 -49 15 -41 6 4 7 -2 3 -16
-5 -14 -3 -20 3 -16 6 4 8 -2 4 -16 -3 -13 -1 -19 5 -15 7 5 9 -1 5 -15 -4
-15 -2 -19 7 -13 10 6 11 2 6 -15 -5 -16 -4 -20 4 -15 8 5 10 -1 5 -21 -5 -19
-4 -25 5 -20 9 6 10 0 5 -20 -5 -19 -4 -25 5 -20 8 6 10 0 5 -18 -4 -17 -2
-26 5 -26 7 0 9 -10 5 -26 -5 -20 -4 -25 6 -19 9 6 10 0 5 -24 -4 -20 -3 -31
5 -31 7 0 9 -12 4 -35 -4 -24 -2 -35 5 -35 9 0 10 -13 5 -45 -4 -32 -3 -45 6
-45 8 0 10 -17 5 -65 -5 -45 -4 -65 4 -65 8 0 11 -45 11 -145 0 -102 -3 -145
-11 -145 -8 0 -10 -19 -5 -65 5 -46 3 -65 -5 -65 -8 0 -9 -14 -5 -45 5 -32 4
-45 -5 -45 -7 0 -9 -11 -5 -35 5 -23 3 -35 -4 -35 -8 0 -9 -11 -5 -31 5 -23 4
-30 -5 -24 -9 6 -10 -1 -5 -25 5 -25 4 -31 -5 -25 -10 6 -11 1 -6 -19 4 -16 2
-26 -4 -26 -7 0 -9 -8 -5 -20 4 -12 2 -20 -5 -20 -7 0 -9 -8 -5 -21 5 -16 4
-19 -5 -14 -9 5 -10 1 -5 -15 5 -17 4 -21 -6 -15 -9 6 -11 2 -7 -13 4 -12 2
-22 -4 -22 -6 0 -7 -7 -4 -16 4 -10 2 -13 -6 -8 -7 5 -9 0 -6 -14 4 -14 2 -20
-5 -15 -6 4 -8 0 -4 -10 4 -10 2 -17 -4 -17 -6 0 -8 -7 -5 -16 4 -10 2 -13 -6
-8 -8 5 -9 2 -5 -10 4 -9 3 -15 -1 -12 -10 6 -54 -82 -47 -94 3 -5 0 -12 -6
-16 -8 -4 -9 -3 -5 4 4 7 5 12 2 12 -10 0 -35 -57 -28 -65 4 -3 0 -5 -8 -3 -9
2 -15 -5 -15 -17 -1 -11 -6 -19 -13 -18 -6 2 -16 -6 -22 -17 -6 -11 -8 -20 -4
-20 3 0 1 -7 -6 -15 -7 -8 -16 -13 -20 -10 -4 2 -18 -7 -30 -20 -13 -14 -20
-25 -16 -25 5 0 3 -7 -4 -15 -7 -8 -16 -13 -20 -10 -4 3 -19 -4 -31 -16 -13
-11 -18 -17 -10 -13 9 5 12 3 7 -5 -4 -6 -11 -9 -15 -6 -5 2 -17 -3 -27 -11
-10 -9 -13 -12 -5 -8 9 5 12 3 7 -5 -4 -6 -12 -9 -17 -6 -12 8 -51 -20 -42
-29 4 -4 0 -4 -9 -1 -10 4 -24 -1 -36 -13 -11 -11 -23 -18 -26 -14 -3 3 -6 0
-6 -7 0 -7 -4 -9 -10 -6 -5 3 -10 1 -10 -5 0 -6 -4 -9 -9 -6 -13 8 -42 -4 -35
-15 3 -5 -2 -6 -10 -3 -9 3 -16 1 -16 -5 0 -6 -7 -8 -17 -4 -11 5 -14 3 -8 -6
6 -10 2 -11 -15 -6 -16 5 -20 4 -15 -5 5 -9 1 -10 -15 -5 -16 5 -20 4 -15 -5
5 -9 2 -10 -14 -5 -11 3 -21 2 -21 -3 0 -6 -10 -8 -22 -4 -15 3 -19 2 -14 -7
6 -9 0 -10 -20 -5 -19 5 -25 4 -20 -5 6 -9 0 -10 -20 -5 -20 5 -25 4 -19 -6 6
-9 0 -10 -25 -5 -24 5 -31 4 -25 -5 6 -9 -1 -10 -25 -5 -24 5 -31 4 -25 -5 5
-8 -3 -9 -29 -5 -25 5 -36 4 -36 -5 0 -8 -12 -10 -40 -5 -28 5 -40 3 -40 -5 0
-9 -16 -10 -60 -5 -33 4 -60 3 -60 -2 0 -4 -3816 -7 -8481 -5 -4664 1 -8478
-1 -8475 -6 2 -4 -11 -6 -31 -4 -22 3 -33 1 -30 -5 4 -6 -4 -8 -20 -5 -19 4
-24 2 -18 -8 5 -9 4 -11 -4 -6 -15 9 -53 -3 -46 -15 3 -5 -1 -6 -9 -3 -14 5
-76 -21 -76 -32 0 -3 5 -2 12 2 7 4 8 3 4 -5 -4 -6 -12 -9 -17 -5 -21 13 -172
-117 -163 -140 3 -7 -3 -19 -13 -27 -17 -13 -17 -13 -3 6 14 18 14 19 -2 7 -9
-8 -15 -19 -12 -26 2 -6 -3 -20 -12 -31 -8 -11 -12 -14 -8 -6 4 9 3 12 -4 7
-6 -4 -8 -14 -5 -23 4 -11 3 -14 -5 -9 -8 5 -10 1 -5 -10 4 -11 3 -15 -4 -11
-7 5 -9 -1 -5 -15 3 -14 1 -19 -6 -14 -8 5 -10 1 -5 -10 4 -11 3 -15 -4 -11
-7 5 -9 -1 -5 -15 3 -13 1 -19 -5 -15 -6 4 -8 -4 -5 -20 3 -15 1 -23 -4 -20
-6 3 -8 -9 -6 -30 3 -20 1 -33 -4 -30 -5 3 -9 -478 -9 -1118 0 -640 4 -1121 9
-1118 5 3 7 -10 4 -30 -2 -21 0 -33 6 -30 5 3 7 -5 4 -20 -3 -16 -1 -24 5 -20
6 4 8 -2 5 -15 -4 -14 -2 -20 5 -15 7 4 8 0 4 -11 -5 -11 -3 -15 5 -10 7 5 9
0 6 -14 -4 -14 -2 -20 5 -15 7 4 8 0 4 -11 -5 -11 -3 -15 5 -10 8 5 9 2 5 -9
-3 -9 -1 -19 5 -23 7 -5 8 -2 4 7 -4 8 0 5 8 -6 9 -11 14 -25 12 -31 -3 -7 3
-18 12 -26 16 -12 16 -11 2 7 -14 19 -14 19 3 6 10 -8 16 -20 13 -27 -9 -23
142 -153 163 -140 5 4 13 1 17 -5 4 -8 3 -9 -4 -5 -7 4 -12 5 -12 2 0 -11 62
-37 76 -32 8 3 12 2 9 -3 -7 -12 31 -24 46 -15 8 5 9 3 4 -6 -6 -10 -1 -12 18
-8 16 3 24 1 20 -5 -3 -6 8 -8 30 -5 20 2 33 0 31 -4 -3 -4 3849 -8 8560 -8
6407 0 8566 3 8566 11 0 9 38 10 140 5 107 -6 140 -5 140 5 0 9 22 10 90 5 65
-5 90 -4 90 5 0 8 21 9 75 4 55 -5 75 -4 75 5 0 9 17 10 60 5 42 -5 60 -4 60
4 0 8 16 10 50 5 35 -5 50 -3 50 5 0 8 15 10 50 5 36 -5 50 -3 50 6 0 8 12 10
40 5 27 -5 40 -3 40 5 0 7 12 9 35 4 24 -4 35 -3 35 6 0 8 12 10 40 5 27 -5
40 -3 40 5 0 7 12 9 35 4 24 -4 35 -2 35 5 0 8 12 10 36 5 28 -5 35 -4 29 5
-5 9 3 10 30 5 28 -5 36 -4 30 5 -5 9 3 10 30 5 28 -5 36 -4 30 5 -5 9 3 10
30 5 28 -5 36 -4 30 5 -5 9 3 10 30 5 29 -5 36 -4 30 6 -6 9 0 10 24 5 20 -4
31 -3 31 4 0 7 10 9 25 5 16 -4 25 -2 25 5 0 7 10 9 26 5 20 -5 25 -4 19 6 -6
9 0 10 25 5 24 -5 31 -4 25 5 -6 9 1 10 25 5 25 -5 31 -4 25 5 -6 10 -1 11 19
6 15 -4 26 -2 26 4 0 6 11 8 26 4 20 -5 25 -4 20 5 -6 9 0 10 20 5 19 -5 25
-4 20 5 -6 9 0 10 20 5 19 -5 25 -4 20 5 -6 9 0 10 20 5 19 -5 25 -4 20 5 -6
9 0 10 20 5 19 -5 25 -4 20 5 -6 9 0 10 20 5 19 -5 25 -4 20 5 -6 9 0 10 20 5
20 -5 25 -4 19 6 -5 9 -2 10 14 5 11 -3 21 -2 21 3 0 6 10 8 22 4 15 -4 19 -2
13 7 -6 10 -2 11 15 6 16 -5 20 -4 15 5 -5 9 -2 10 14 5 11 -3 21 -2 21 3 0 6
10 8 22 4 15 -4 19 -2 13 7 -5 10 -2 11 14 6 11 -3 21 -2 21 3 0 6 10 8 22 4
13 -3 19 -1 15 5 -5 7 1 9 15 5 13 -3 19 -1 15 5 -5 7 1 9 15 5 14 -3 19 -1
14 6 -5 8 -2 10 8 6 9 -3 16 -1 16 5 0 6 7 8 15 5 8 -4 15 -1 15 5 0 6 7 8 15
5 8 -4 15 -1 15 5 0 6 7 8 15 5 8 -4 15 -1 15 5 0 6 7 8 15 5 8 -4 15 -1 15 5
0 6 7 8 15 5 8 -4 15 -1 15 5 0 6 7 8 17 4 11 -5 14 -3 8 6 -6 10 -2 11 15 6
15 -5 20 -4 16 4 -5 7 -1 9 8 5 9 -3 16 -1 16 5 0 6 7 8 17 4 11 -4 14 -3 9 5
-5 8 -2 10 8 6 9 -3 16 -1 16 5 0 6 7 8 17 4 11 -4 14 -3 9 5 -5 8 -2 10 8 6
9 -3 16 -1 16 5 0 6 7 8 17 4 12 -5 14 -3 8 7 -6 10 -4 12 8 7 22 -8 49 2 40
16 -4 6 0 8 11 4 20 -8 87 23 79 36 -4 6 0 8 10 4 10 -3 17 -2 17 4 0 6 4 8 9
4 14 -8 61 16 54 28 -4 6 0 8 10 4 10 -3 17 -2 17 4 0 6 4 8 10 4 12 -7 130
52 130 66 0 5 5 7 10 4 6 -3 10 -1 10 5 0 6 5 8 10 5 6 -3 10 -1 10 6 0 7 3 9
7 6 3 -4 12 1 20 11 8 9 11 11 7 3 -4 -7 21 1 54 19 34 18 59 37 55 43 -4 6
-1 7 7 2 8 -5 20 1 32 16 11 13 16 18 12 10 -4 -9 8 -5 34 9 23 13 38 28 35
33 -3 6 -1 7 5 3 10 -6 202 108 202 121 0 2 -5 1 -12 -3 -7 -4 -8 -3 -4 5 4 6
12 9 17 5 10 -6 279 190 279 203 0 3 -10 -2 -22 -13 l-23 -19 19 22 c10 13 22
20 27 17 4 -2 21 8 37 23 15 15 19 21 8 13 -21 -15 -21 -15 -2 7 10 13 23 20
28 16 13 -7 412 392 404 405 -3 5 4 18 17 28 l22 19 -20 -25 -20 -25 28 25
c15 13 25 30 23 36 -3 7 3 18 12 26 16 12 16 11 2 -7 -15 -20 -15 -20 8 -1 12
11 21 25 18 32 -3 7 3 18 12 26 15 12 16 11 3 -4 -7 -10 -11 -18 -8 -18 12 0
127 162 121 171 -3 5 0 8 8 7 7 -2 13 5 13 14 0 9 4 20 9 25 5 5 6 2 1 -6 -6
-10 -4 -12 4 -7 7 5 10 14 7 22 -3 7 0 16 6 20 7 5 8 2 4 -7 -13 -24 31 33 49
64 13 22 14 28 4 23 -8 -4 -3 1 10 12 13 10 21 24 17 30 -3 6 -1 14 5 18 8 5
10 2 5 -7 -4 -8 0 -5 8 6 9 11 14 25 12 32 -3 7 0 15 6 19 7 5 8 2 4 -7 -4 -8
0 -5 8 6 9 11 14 25 12 32 -3 7 0 15 6 19 7 4 8 3 4 -4 -4 -7 -5 -12 -2 -12 3
0 17 23 32 51 14 29 20 48 12 44 -7 -3 -5 0 4 8 10 8 15 17 11 20 -3 4 -1 7 5
7 15 0 85 137 77 150 -4 6 -1 10 5 10 6 0 8 5 5 10 -3 6 -1 10 5 10 7 0 9 7 6
16 -4 10 -2 13 6 8 8 -5 9 -2 5 10 -4 9 -3 15 2 12 11 -7 23 22 15 35 -3 5 -1
9 5 9 6 0 7 7 4 17 -4 10 -2 14 4 10 12 -8 26 20 17 34 -3 5 0 9 6 9 7 0 9 7
6 16 -4 10 -2 13 6 8 8 -5 9 -2 5 9 -4 10 -2 17 4 17 6 0 8 7 5 16 -4 9 -2 13
5 8 8 -4 9 1 4 16 -5 17 -4 21 6 15 9 -6 11 -3 6 8 -4 10 -2 17 4 17 6 0 8 7
5 16 -4 9 -2 13 5 8 8 -4 9 1 4 16 -5 17 -4 21 6 15 9 -6 11 -3 6 8 -4 10 -2
17 4 17 6 0 8 7 5 16 -4 10 -2 13 6 8 7 -5 9 0 6 14 -4 14 -2 20 5 15 6 -4 8
2 5 15 -4 12 -2 22 4 22 6 0 8 7 4 15 -3 8 -1 15 5 15 6 0 9 7 5 15 -3 8 -1
15 5 15 6 0 8 9 4 21 -5 16 -4 19 5 14 9 -5 10 -1 5 15 -5 16 -4 20 5 15 9 -5
10 -1 5 15 -5 17 -4 21 6 15 9 -6 11 -2 7 13 -4 12 -2 22 4 22 5 0 6 9 3 20
-4 12 -2 20 5 20 7 0 9 8 5 20 -4 12 -2 20 5 20 7 0 9 8 5 21 -5 16 -4 19 5
14 10 -6 11 -1 6 19 -5 20 -4 26 5 20 9 -5 10 1 5 20 -5 20 -4 26 5 20 9 -5
10 0 5 20 -4 16 -2 26 5 26 7 0 9 9 5 26 -5 18 -3 24 5 19 8 -6 9 2 4 25 -5
24 -4 31 5 25 9 -6 10 1 5 25 -5 24 -4 31 5 25 9 -6 10 1 5 25 -5 24 -4 31 5
25 8 -5 9 3 4 30 -5 28 -4 36 5 30 9 -5 10 3 5 30 -5 30 -4 36 6 30 10 -6 11
0 6 29 -5 23 -3 36 4 36 7 0 9 13 4 36 -5 29 -4 35 6 29 10 -6 11 0 6 29 -5
24 -3 36 4 36 8 0 10 15 5 50 -5 36 -4 50 5 50 9 0 10 13 6 45 -5 30 -4 45 4
45 7 0 8 21 4 65 -5 48 -4 65 6 65 9 0 10 21 5 85 -5 52 -4 85 2 85 6 0 9 128
9 325 0 197 -3 325 -9 325 -6 0 -7 33 -2 85 5 64 4 85 -5 85 -10 0 -11 17 -6
65 4 44 3 65 -4 65 -8 0 -9 15 -4 45 4 32 3 45 -6 45 -9 0 -10 14 -5 50 5 35
3 50 -5 50 -7 0 -9 12 -4 36 5 28 4 35 -5 29 -9 -5 -11 2 -6 29 5 24 4 36 -4
36 -8 0 -10 12 -5 36 5 28 4 35 -5 29 -9 -5 -10 3 -5 30 5 28 4 36 -5 30 -9
-5 -10 3 -5 30 5 29 4 36 -6 30 -9 -6 -10 0 -5 25 5 23 4 31 -4 25 -8 -5 -10
1 -5 19 4 17 2 26 -5 26 -7 0 -9 9 -5 25 4 16 2 25 -5 25 -7 0 -9 9 -5 25 4
16 2 25 -6 25 -7 0 -9 8 -5 20 4 12 2 20 -5 20 -7 0 -9 8 -5 20 4 12 2 20 -5
20 -7 0 -9 8 -5 20 4 12 2 20 -5 20 -7 0 -9 8 -5 20 3 11 2 20 -3 20 -6 0 -8
10 -4 22 3 15 2 19 -7 14 -9 -6 -10 0 -5 20 5 19 4 25 -5 20 -9 -6 -10 0 -5
20 5 20 4 25 -6 19 -9 -5 -10 -2 -5 15 5 16 4 20 -5 15 -9 -5 -10 -1 -5 15 5
16 4 20 -5 15 -9 -5 -10 -1 -5 15 5 16 4 20 -5 15 -9 -5 -10 -1 -5 15 5 16 4
20 -5 15 -9 -5 -10 -2 -5 14 4 12 2 21 -4 21 -6 0 -8 7 -5 15 4 8 1 15 -5 15
-6 0 -8 7 -5 15 4 8 1 15 -5 15 -6 0 -8 7 -5 15 4 8 1 15 -5 15 -6 0 -8 7 -4
17 5 11 3 14 -6 8 -10 -6 -11 -2 -6 15 5 15 4 20 -4 16 -7 -5 -9 -1 -5 8 3 9
1 16 -5 16 -6 0 -8 7 -4 17 5 12 3 14 -7 8 -9 -5 -11 -4 -6 4 10 16 -3 53 -16
45 -7 -5 -9 -1 -5 9 8 22 -2 49 -16 40 -6 -4 -8 0 -4 10 8 21 -2 49 -14 41 -5
-3 -6 2 -3 10 3 9 1 16 -6 16 -6 0 -8 5 -5 10 3 6 1 10 -5 10 -6 0 -9 4 -6 9
8 13 -4 42 -15 35 -5 -3 -6 3 -2 12 4 12 3 15 -5 10 -8 -5 -10 -2 -6 8 3 9 1
16 -6 16 -6 0 -9 4 -5 10 8 13 -42 110 -57 110 -6 0 -8 3 -5 7 4 3 -1 12 -11
20 -9 8 -11 11 -4 8 19 -10 -36 97 -62 118 -11 10 -15 16 -8 12 21 -11 13 5
-15 32 -16 15 -22 22 -14 18 9 -5 6 7 -9 31 -22 37 -53 77 -35 45 5 -10 4 -12
-4 -7 -6 4 -8 12 -5 18 6 9 -81 148 -93 148 -2 0 -1 -5 3 -12 4 -7 3 -8 -4 -4
-6 4 -9 13 -6 20 3 8 0 17 -7 22 -8 5 -10 3 -4 -7 5 -8 4 -11 -1 -6 -5 5 -9
16 -9 25 0 9 -6 16 -13 14 -8 -1 -11 1 -8 6 5 9 -50 92 -61 92 -3 0 1 -8 8
-17 13 -16 12 -17 -3 -5 -9 8 -15 19 -12 26 3 7 -6 21 -18 32 -23 19 -23 19
-8 -1 14 -18 14 -19 -2 -7 -9 8 -15 19 -12 26 3 7 -6 21 -18 32 -23 19 -23 19
-8 -1 14 -18 14 -19 -2 -7 -9 8 -15 19 -12 26 2 6 -10 25 -28 41 l-33 30 25
-30 25 -30 -27 24 c-19 17 -25 28 -18 36 5 7 8 14 5 17 -3 2 7 15 23 29 l27
24 -24 -27 c-14 -16 -22 -28 -18 -28 11 0 97 112 92 120 -3 5 0 12 6 16 8 5
10 2 5 -7 -4 -8 2 -3 13 10 12 12 19 27 16 31 -3 5 0 12 6 16 8 5 9 3 4 -7
-12 -21 6 -1 44 48 18 24 30 47 27 52 -4 5 -1 13 5 17 8 5 10 2 5 -7 -4 -8 -1
-5 8 5 8 10 13 23 10 28 -3 5 0 7 8 6 7 -2 13 5 13 14 0 9 4 20 9 25 5 4 6 3
2 -4 -4 -7 -5 -13 -2 -13 2 0 22 28 43 63 59 93 58 91 42 83 -8 -4 -3 1 10 12
13 10 21 24 17 30 -3 6 -1 14 5 18 8 5 10 2 5 -7 -4 -8 0 -5 8 6 9 11 14 25
12 32 -3 7 0 15 6 19 7 4 8 3 4 -4 -4 -7 -5 -12 -2 -12 3 0 20 27 36 61 17 34
25 58 18 54 -7 -3 -5 0 4 8 10 8 15 17 11 20 -3 4 -1 7 5 7 15 0 75 117 67
130 -4 6 -2 10 4 10 6 0 7 7 4 17 -4 10 -2 14 4 10 11 -7 46 60 38 74 -4 5 -2
9 4 9 6 0 7 7 4 17 -4 10 -2 14 4 10 12 -8 26 20 17 34 -3 5 0 9 6 9 7 0 9 7
6 16 -4 10 -2 13 6 8 8 -5 9 -2 5 9 -4 10 -2 17 4 17 6 0 8 7 5 16 -4 9 -2 13
5 8 8 -4 9 1 4 16 -5 17 -4 21 6 15 9 -6 11 -3 6 8 -4 10 -2 17 4 17 6 0 8 7
5 16 -4 9 -2 13 5 8 8 -4 9 1 4 16 -5 17 -4 21 6 15 9 -6 11 -3 6 8 -4 10 -2
17 4 17 6 0 8 7 5 16 -4 10 -2 13 6 8 7 -5 9 0 6 14 -4 14 -2 20 5 15 6 -4 8
2 5 15 -4 12 -2 22 4 22 6 0 8 7 4 15 -3 8 -1 15 5 15 6 0 8 9 4 21 -5 16 -4
19 5 14 9 -5 10 -1 5 15 -5 16 -4 20 5 15 9 -5 10 -1 5 15 -5 16 -4 20 5 15 9
-5 10 -1 5 15 -5 17 -4 20 5 15 10 -6 11 -1 6 19 -5 20 -4 26 5 20 9 -5 10 -1
7 14 -4 12 -2 22 4 22 5 0 6 9 3 20 -4 12 -2 20 5 20 7 0 9 8 5 20 -4 12 -2
20 5 20 7 0 9 8 5 21 -5 16 -4 19 5 14 10 -6 11 -1 6 19 -5 20 -4 26 5 20 9
-5 10 0 5 20 -4 16 -2 26 5 26 7 0 9 9 5 25 -4 16 -2 25 5 25 7 0 9 9 5 26 -5
18 -3 24 5 19 8 -6 9 2 4 25 -5 24 -4 31 5 25 9 -6 10 1 5 25 -5 25 -4 31 5
25 10 -6 11 1 6 30 -5 27 -4 35 5 30 9 -6 10 2 5 30 -5 27 -4 35 5 30 9 -6 10
1 5 29 -5 24 -3 36 5 36 8 0 9 12 4 36 -5 27 -3 34 6 29 9 -6 10 1 5 29 -5 24
-3 36 4 36 8 0 10 15 5 50 -5 36 -4 50 5 50 9 0 10 13 6 45 -5 30 -4 45 4 45
7 0 8 21 4 65 -5 48 -4 65 6 65 9 0 10 21 5 85 -5 52 -4 85 2 85 6 0 9 128 9
325 0 197 -3 325 -9 325 -6 0 -7 33 -2 85 5 64 4 85 -5 85 -10 0 -11 17 -6 65
4 44 3 65 -4 65 -8 0 -9 15 -4 45 4 32 3 45 -6 45 -9 0 -10 14 -5 50 5 35 3
50 -5 50 -7 0 -9 12 -4 36 5 28 4 35 -5 29 -9 -5 -11 2 -6 29 5 24 4 36 -4 36
-8 0 -10 12 -5 36 5 28 4 35 -5 29 -9 -5 -10 3 -5 30 5 28 4 36 -5 30 -9 -5
-10 3 -5 30 5 29 4 36 -6 30 -9 -6 -10 0 -5 25 5 24 4 31 -5 25 -9 -6 -10 1
-5 25 5 22 4 30 -4 26 -7 -5 -9 3 -4 25 4 24 3 30 -6 25 -8 -6 -10 -1 -5 18 4
17 2 26 -5 26 -7 0 -9 10 -5 26 5 20 4 25 -5 20 -9 -6 -10 0 -5 20 5 20 4 25
-6 19 -9 -5 -10 -2 -5 14 4 13 2 21 -5 21 -7 0 -9 8 -5 20 4 12 2 20 -5 20 -7
0 -9 8 -5 20 3 11 2 20 -3 20 -6 0 -8 10 -4 22 3 15 2 19 -7 14 -9 -6 -10 0
-5 20 5 20 4 25 -6 19 -9 -5 -10 -2 -5 15 5 16 4 20 -5 15 -9 -5 -10 -1 -5 15
5 16 4 20 -5 15 -9 -5 -10 -1 -5 15 5 16 4 20 -5 15 -9 -5 -10 -2 -5 14 4 12
2 21 -4 21 -6 0 -8 7 -5 15 4 8 2 15 -4 15 -6 0 -8 10 -4 22 3 13 1 19 -5 15
-7 -5 -9 1 -5 15 3 14 1 19 -6 14 -8 -5 -10 -2 -6 8 3 9 1 16 -5 16 -6 0 -8 7
-4 17 5 11 3 14 -6 8 -10 -6 -11 -2 -6 15 5 15 4 20 -4 16 -7 -5 -9 -1 -5 8 3
9 1 16 -5 16 -6 0 -8 7 -4 17 5 11 3 14 -6 8 -10 -6 -11 -2 -6 15 5 15 4 20
-4 16 -7 -5 -9 -1 -5 8 3 9 1 16 -5 16 -6 0 -8 7 -4 17 4 11 3 14 -5 9 -8 -5
-10 -2 -6 8 3 9 1 16 -6 16 -6 0 -9 4 -6 9 9 14 -5 42 -17 34 -6 -4 -8 0 -4
10 3 10 2 17 -4 17 -6 0 -8 4 -4 9 8 14 -27 81 -38 74 -6 -4 -8 0 -4 10 3 10
2 17 -4 17 -6 0 -8 4 -4 10 8 13 -52 130 -67 130 -6 0 -8 3 -5 7 4 3 -1 12
-11 20 -9 8 -11 11 -4 8 7 -4 -1 20 -18 54 -16 34 -33 61 -36 61 -3 0 -2 -5 2
-12 4 -7 3 -8 -4 -4 -6 4 -9 12 -6 19 2 7 -3 21 -12 32 -8 11 -12 14 -8 6 5
-9 3 -12 -5 -7 -6 4 -8 12 -5 18 4 6 -4 20 -17 30 -13 11 -18 16 -10 12 9 -5
6 7 -9 32 -22 37 -53 77 -35 45 5 -9 4 -12 -3 -7 -6 4 -9 12 -7 19 3 7 -5 23
-16 37 -11 14 -17 19 -13 11 4 -9 3 -12 -4 -7 -6 4 -9 12 -7 19 2 7 -7 26 -21
42 -15 17 -23 24 -19 16 6 -9 4 -12 -4 -7 -6 4 -9 12 -6 17 6 9 -116 175 -177
240 -18 19 -24 24 -13 10 l20 -26 -27 24 c-15 13 -25 28 -22 33 8 13 -381 402
-394 394 -5 -3 -16 2 -23 12 -13 16 -12 16 6 3 11 -7 7 -2 -8 13 -16 14 -32
24 -36 21 -5 -2 -17 5 -27 18 l-19 22 25 -20 25 -20 -24 28 c-14 15 -32 26
-40 25 -9 -2 -16 4 -16 12 0 8 -9 15 -20 15 -11 0 -20 7 -20 15 0 8 -9 15 -20
15 -11 0 -20 7 -20 15 0 8 -8 15 -17 15 -10 0 -23 7 -30 15 -11 12 -10 12 6 0
11 -8 17 -10 13 -3 -13 21 -217 154 -227 148 -6 -4 -9 -1 -8 7 2 7 -5 12 -14
12 -10 -1 -15 3 -11 9 4 6 0 8 -10 4 -9 -3 -19 -1 -23 5 -4 7 -3 8 4 4 7 -4
12 -5 12 -2 0 3 -14 13 -31 22 -23 11 -29 12 -24 2 4 -7 -2 -2 -13 11 -12 15
-24 21 -32 16 -8 -5 -11 -4 -7 2 7 11 -49 47 -62 38 -5 -3 -13 0 -17 6 -4 8
-3 9 4 5 7 -4 12 -5 12 -2 0 3 -36 24 -81 46 -44 23 -78 36 -74 30 6 -9 2 -9
-14 -1 -11 7 -21 16 -21 22 0 6 -4 7 -10 4 -5 -3 -10 -1 -10 5 0 6 -4 8 -10 5
-5 -3 -10 -1 -10 5 0 6 -4 8 -10 5 -5 -3 -10 -1 -10 5 0 6 -4 8 -10 5 -5 -3
-10 -1 -10 5 0 6 -4 8 -10 5 -5 -3 -10 -2 -10 4 0 6 -7 7 -17 4 -10 -4 -14 -2
-10 4 7 11 -60 46 -74 38 -5 -4 -9 -1 -9 5 0 7 -7 9 -16 6 -10 -4 -13 -2 -8 6
5 8 2 9 -10 5 -9 -4 -15 -3 -12 2 7 11 -22 23 -35 15 -5 -3 -9 0 -9 6 0 7 -7
9 -16 6 -10 -4 -13 -2 -8 6 5 8 2 9 -9 5 -10 -4 -17 -2 -17 4 0 6 -7 8 -16 5
-10 -4 -13 -2 -8 6 5 8 2 9 -9 5 -10 -4 -17 -2 -17 4 0 6 -7 8 -16 5 -9 -4
-13 -2 -8 5 4 8 -1 9 -16 4 -14 -4 -20 -3 -16 3 8 13 -19 23 -41 15 -12 -5
-14 -3 -8 7 6 10 4 12 -8 7 -10 -4 -17 -2 -17 4 0 6 -7 8 -16 5 -9 -4 -13 -2
-8 5 4 8 -1 9 -16 4 -16 -5 -20 -4 -15 5 5 9 1 10 -15 5 -16 -5 -20 -4 -15 5
5 9 1 10 -15 5 -17 -5 -21 -4 -15 6 6 9 3 11 -8 6 -10 -4 -17 -2 -17 4 0 6 -7
9 -15 5 -8 -3 -15 -1 -15 5 0 6 -7 9 -15 5 -8 -3 -15 -1 -15 5 0 6 -7 9 -15 5
-8 -3 -15 -1 -15 5 0 6 -7 9 -15 5 -8 -3 -15 -1 -15 5 0 6 -7 9 -15 5 -8 -3
-15 -1 -15 5 0 6 -9 8 -21 4 -16 -5 -19 -4 -14 5 5 9 1 10 -15 5 -17 -5 -20
-4 -15 5 6 10 1 11 -19 6 -20 -5 -26 -3 -21 5 5 8 1 9 -15 4 -17 -5 -21 -4
-15 6 6 9 2 11 -13 7 -12 -4 -22 -2 -22 4 0 5 -10 6 -21 3 -16 -5 -19 -4 -14
6 6 9 2 11 -13 7 -12 -4 -22 -2 -22 4 0 5 -10 6 -21 3 -16 -5 -19 -4 -14 5 6
10 1 11 -19 6 -20 -5 -26 -4 -20 5 5 9 0 10 -20 5 -16 -4 -26 -2 -26 4 0 7 -8
9 -20 5 -12 -4 -20 -2 -20 5 0 7 -8 9 -20 5 -12 -4 -20 -2 -20 5 0 7 -8 9 -20
5 -12 -4 -20 -2 -20 5 0 7 -8 10 -20 7 -11 -3 -20 -1 -20 5 0 6 -11 7 -25 4
-16 -4 -25 -2 -25 5 0 7 -9 9 -26 5 -19 -5 -24 -3 -18 5 5 9 -1 10 -25 6 -23
-5 -30 -3 -25 5 5 8 -2 9 -25 5 -22 -5 -30 -3 -25 4 4 8 -4 9 -26 4 -24 -5
-31 -4 -25 5 6 9 -1 10 -24 5 -21 -4 -31 -3 -31 5 0 8 -10 9 -30 5 -20 -4 -30
-3 -30 5 0 8 -10 9 -30 5 -20 -4 -30 -3 -30 5 0 8 -10 9 -30 5 -20 -4 -30 -3
-30 5 0 8 -10 9 -30 5 -20 -4 -30 -3 -30 5 0 9 -10 11 -30 6 -18 -3 -30 -1
-30 5 0 7 -14 8 -40 4 -28 -5 -40 -3 -40 5 0 9 -11 10 -35 6 -23 -5 -35 -3
-35 4 0 8 -13 10 -40 5 -28 -5 -40 -3 -40 5 0 8 -12 10 -40 5 -28 -5 -40 -3
-40 5 0 8 -14 10 -50 5 -36 -5 -50 -4 -50 5 0 9 -14 10 -50 5 -35 -5 -50 -3
-50 5 0 8 -18 9 -60 4 -44 -5 -60 -3 -60 6 0 9 -19 10 -75 5 -54 -5 -75 -4
-75 4 0 8 -27 10 -95 5 -70 -5 -95 -4 -95 5 0 9 -40 10 -160 5 -118 -5 -160
-4 -160 4 0 9 -2095 12 -8536 12 -4694 0 -8533 -4 -8530 -8z"/>
</g>
</svg>
